# xmcd
#
# Track frame offsets: 
#        150
#        24015
#        44877
#        59660
#        80100
#        98885
#        114950
#        133215
#        151085
#        175212
#        195100
#        213427
#        231660
#        251047
#        266180
#
# Disc length: 3855 seconds
#
# Revision: 0
# Processed by: cddbd v1.4PL0 Copyright (c) Steve Scherf et al.
# Submitted via: ExactAudioCopy v0.90a11
#
DISCID=d80f0d0f
DTITLE=Cathy Jean - Marshall Road Apocalypse
DYEAR=1900
DGENRE=
TTITLE0=Your One And Only
TTITLE1=Kauai
TTITLE2=Call It (Quits)
TTITLE3=The Kids From Glen Burnie
TTITLE4=Ms. Jeneration Hip Zone
TTITLE5=Dirty One
TTITLE6=Behind My Back
TTITLE7=It's On Me
TTITLE8=Austria
TTITLE9=Purple Tattoos
TTITLE10=Prophet
TTITLE11=You Don't Know
TTITLE12=Strut
TTITLE13=Get Me Out
TTITLE14=The Fabulous New Debbie Song
EXTD=
EXTT0=
EXTT1=
EXTT2=
EXTT3=
EXTT4=
EXTT5=
EXTT6=
EXTT7=
EXTT8=
EXTT9=
EXTT10=
EXTT11=
EXTT12=
EXTT13=
EXTT14=
PLAYORDER=
